<svg width="602" height="601" viewBox="0 0 602 601" fill="none" xmlns="http://www.w3.org/2000/svg">
<g opacity="0.96">
<path d="M300.413 600.825C258.964 600.825 220.082 593.031 183.769 577.441C147.455 561.852 115.543 540.302 88.033 512.792C60.5227 485.282 38.9729 453.37 23.3838 417.056C7.79458 380.743 0 341.861 0 300.413C0 258.964 7.79458 220.082 23.3838 183.769C38.9729 147.455 60.5227 115.543 88.033 88.033C115.543 60.3393 147.455 38.7896 183.769 23.3838C220.082 7.79462 258.964 0 300.413 0C342.045 0 381.018 7.79462 417.331 23.3838C453.645 38.7896 485.557 60.3393 513.067 88.033C540.577 115.543 562.127 147.455 577.716 183.769C593.306 220.082 601.1 258.964 601.1 300.413C601.1 341.861 593.306 380.743 577.716 417.056C562.127 453.37 540.577 485.282 513.067 512.792C485.557 540.302 453.645 561.852 417.331 577.441C381.018 593.031 342.045 600.825 300.413 600.825ZM262.448 417.882L408.253 332.049C416.506 327.098 422.008 320.587 424.759 312.517C427.51 304.264 427.418 296.011 424.484 287.758C421.733 279.505 416.323 272.994 408.253 268.225L262.448 182.393C253.462 177.075 244.658 174.966 236.038 176.066C227.418 176.983 220.266 180.559 214.58 186.795C208.895 193.031 206.052 201.375 206.052 211.829V388.17C206.052 398.624 208.895 406.969 214.58 413.205C220.449 419.44 227.694 423.109 236.314 424.209C244.933 425.126 253.645 423.017 262.448 417.882Z" fill="white" style="mix-blend-mode:plus-lighter"/>
</g>
</svg>
