<svg width="576" height="576" viewBox="0 0 576 576" fill="none" xmlns="http://www.w3.org/2000/svg">
<foreignObject x="-9.53674e-06" y="-3.24249e-05" width="576" height="576"><div xmlns="http://www.w3.org/1999/xhtml" style="backdrop-filter:blur(7.58px);clip-path:url(#bgblur_0_67_14_clip_path);height:100%;width:100%"></div></foreignObject><g filter="url(#filter0_ddii_67_14)" data-figma-bg-blur-radius="15.16">
<mask id="path-1-outside-1_67_14" maskUnits="userSpaceOnUse" x="47.1504" y="46.392" width="504" height="504" fill="black">
<rect fill="white" x="47.1504" y="46.392" width="504" height="504"/>
<path d="M550.15 298.392C550.15 437.015 437.774 549.392 299.15 549.392C160.527 549.392 48.1504 437.015 48.1504 298.392C48.1504 159.768 160.527 47.392 299.15 47.392C437.774 47.392 550.15 159.768 550.15 298.392Z"/>
</mask>
<path d="M550.15 298.392C550.15 437.015 437.774 549.392 299.15 549.392C160.527 549.392 48.1504 437.015 48.1504 298.392C48.1504 159.768 160.527 47.392 299.15 47.392C437.774 47.392 550.15 159.768 550.15 298.392Z" fill="white" fill-opacity="0.068" style="mix-blend-mode:plus-lighter"/>
<g clip-path="url(#paint0_angular_67_14_clip_path)" data-figma-skip-parse="true" mask="url(#path-1-outside-1_67_14)"><g transform="matrix(0.251 0 0 0.251 48.1504 47.392)"><foreignObject x="-2003.98" y="-2003.98" width="4007.97" height="4007.97"><div xmlns="http://www.w3.org/1999/xhtml" style="background:conic-gradient(from 90deg,rgba(255, 255, 255, 0.1839) 0deg,rgba(255, 255, 255, 0.352) 42.9837deg,rgba(255, 255, 255, 0) 132.984deg,rgba(255, 255, 255, 0.352) 222.984deg,rgba(255, 255, 255, 0) 312.984deg,rgba(255, 255, 255, 0.1839) 360deg);height:100%;width:100%;opacity:1"></div></foreignObject></g></g><path d="M550.15 298.392H549.15C549.15 436.463 437.222 548.392 299.15 548.392V549.392V550.392C438.326 550.392 551.15 437.568 551.15 298.392H550.15ZM299.15 549.392V548.392C161.079 548.392 49.1504 436.463 49.1504 298.392H48.1504H47.1504C47.1504 437.568 159.975 550.392 299.15 550.392V549.392ZM48.1504 298.392H49.1504C49.1504 160.321 161.079 48.392 299.15 48.392V47.392V46.392C159.975 46.392 47.1504 159.216 47.1504 298.392H48.1504ZM299.15 47.392V48.392C437.222 48.392 549.15 160.321 549.15 298.392H550.15H551.15C551.15 159.216 438.326 46.392 299.15 46.392V47.392Z" data-figma-gradient-fill="{&#34;type&#34;:&#34;GRADIENT_ANGULAR&#34;,&#34;stops&#34;:[{&#34;color&#34;:{&#34;r&#34;:1.0,&#34;g&#34;:1.0,&#34;b&#34;:1.0,&#34;a&#34;:0.35199999809265137},&#34;position&#34;:0.11939926445484161},{&#34;color&#34;:{&#34;r&#34;:1.0,&#34;g&#34;:1.0,&#34;b&#34;:1.0,&#34;a&#34;:0.0},&#34;position&#34;:0.36939927935600281},{&#34;color&#34;:{&#34;r&#34;:1.0,&#34;g&#34;:1.0,&#34;b&#34;:1.0,&#34;a&#34;:0.35199999809265137},&#34;position&#34;:0.61939924955368042},{&#34;color&#34;:{&#34;r&#34;:1.0,&#34;g&#34;:1.0,&#34;b&#34;:1.0,&#34;a&#34;:0.0},&#34;position&#34;:0.86939924955368042}],&#34;stopsVar&#34;:[{&#34;color&#34;:{&#34;r&#34;:1.0,&#34;g&#34;:1.0,&#34;b&#34;:1.0,&#34;a&#34;:0.35199999809265137},&#34;position&#34;:0.11939926445484161},{&#34;color&#34;:{&#34;r&#34;:1.0,&#34;g&#34;:1.0,&#34;b&#34;:1.0,&#34;a&#34;:0.0},&#34;position&#34;:0.36939927935600281},{&#34;color&#34;:{&#34;r&#34;:1.0,&#34;g&#34;:1.0,&#34;b&#34;:1.0,&#34;a&#34;:0.35199999809265137},&#34;position&#34;:0.61939924955368042},{&#34;color&#34;:{&#34;r&#34;:1.0,&#34;g&#34;:1.0,&#34;b&#34;:1.0,&#34;a&#34;:0.0},&#34;position&#34;:0.86939924955368042}],&#34;transform&#34;:{&#34;m00&#34;:502.0,&#34;m01&#34;:0.0,&#34;m02&#34;:-202.8496093750,&#34;m10&#34;:0.0,&#34;m11&#34;:502.0,&#34;m12&#34;:-203.60803222656250},&#34;opacity&#34;:1.0,&#34;blendMode&#34;:&#34;LINEAR_DODGE&#34;,&#34;visible&#34;:true}" style="mix-blend-mode:plus-lighter" mask="url(#path-1-outside-1_67_14)"/>
</g>
<defs>
<filter id="filter0_ddii_67_14" x="-9.53674e-06" y="-3.24249e-05" width="576" height="576" filterUnits="userSpaceOnUse" color-interpolation-filters="sRGB">
<feFlood flood-opacity="0" result="BackgroundImageFix"/>
<feColorMatrix in="SourceAlpha" type="matrix" values="0 0 0 0 0 0 0 0 0 0 0 0 0 0 0 0 0 0 127 0" result="hardAlpha"/>
<feMorphology radius="8" operator="erode" in="SourceAlpha" result="effect1_dropShadow_67_14"/>
<feOffset dx="-1.8584" dy="-1.732"/>
<feGaussianBlur stdDeviation="6"/>
<feColorMatrix type="matrix" values="0 0 0 0 0 0 0 0 0 0 0 0 0 0 0 0 0 0 0.15 0"/>
<feBlend mode="plus-darker" in2="BackgroundImageFix" result="effect1_dropShadow_67_14"/>
<feColorMatrix in="SourceAlpha" type="matrix" values="0 0 0 0 0 0 0 0 0 0 0 0 0 0 0 0 0 0 127 0" result="hardAlpha"/>
<feMorphology radius="12" operator="erode" in="SourceAlpha" result="effect2_dropShadow_67_14"/>
<feOffset dx="-11.1504" dy="-10.392"/>
<feGaussianBlur stdDeviation="24"/>
<feColorMatrix type="matrix" values="0 0 0 0 0 0 0 0 0 0 0 0 0 0 0 0 0 0 0.15 0"/>
<feBlend mode="plus-darker" in2="effect1_dropShadow_67_14" result="effect2_dropShadow_67_14"/>
<feBlend mode="normal" in="SourceGraphic" in2="effect2_dropShadow_67_14" result="shape"/>
<feColorMatrix in="SourceAlpha" type="matrix" values="0 0 0 0 0 0 0 0 0 0 0 0 0 0 0 0 0 0 127 0" result="hardAlpha"/>
<feOffset dx="1.21725" dy="1.13446"/>
<feGaussianBlur stdDeviation="2.31"/>
<feComposite in2="hardAlpha" operator="arithmetic" k2="-1" k3="1"/>
<feColorMatrix type="matrix" values="0 0 0 0 1 0 0 0 0 1 0 0 0 0 1 0 0 0 0.126 0"/>
<feBlend mode="plus-lighter" in2="shape" result="effect3_innerShadow_67_14"/>
<feColorMatrix in="SourceAlpha" type="matrix" values="0 0 0 0 0 0 0 0 0 0 0 0 0 0 0 0 0 0 127 0" result="hardAlpha"/>
<feOffset dx="2.14645" dy="2.00046"/>
<feGaussianBlur stdDeviation="4.62"/>
<feComposite in2="hardAlpha" operator="arithmetic" k2="-1" k3="1"/>
<feColorMatrix type="matrix" values="0 0 0 0 1 0 0 0 0 1 0 0 0 0 1 0 0 0 0.126 0"/>
<feBlend mode="plus-lighter" in2="effect3_innerShadow_67_14" result="effect4_innerShadow_67_14"/>
</filter>
<clipPath id="bgblur_0_67_14_clip_path" transform="translate(9.53674e-06 3.24249e-05)"><path d="M550.15 298.392C550.15 437.015 437.774 549.392 299.15 549.392C160.527 549.392 48.1504 437.015 48.1504 298.392C48.1504 159.768 160.527 47.392 299.15 47.392C437.774 47.392 550.15 159.768 550.15 298.392Z"/>
</clipPath><clipPath id="paint0_angular_67_14_clip_path"><path d="M550.15 298.392H549.15C549.15 436.463 437.222 548.392 299.15 548.392V549.392V550.392C438.326 550.392 551.15 437.568 551.15 298.392H550.15ZM299.15 549.392V548.392C161.079 548.392 49.1504 436.463 49.1504 298.392H48.1504H47.1504C47.1504 437.568 159.975 550.392 299.15 550.392V549.392ZM48.1504 298.392H49.1504C49.1504 160.321 161.079 48.392 299.15 48.392V47.392V46.392C159.975 46.392 47.1504 159.216 47.1504 298.392H48.1504ZM299.15 47.392V48.392C437.222 48.392 549.15 160.321 549.15 298.392H550.15H551.15C551.15 159.216 438.326 46.392 299.15 46.392V47.392Z" mask="url(#path-1-outside-1_67_14)"/></clipPath></defs>
</svg>
